<?xml version="1.0" encoding="utf-8"?>
<!-- Generator: Adobe Illustrator 13.0.0, SVG Export Plug-In . SVG Version: 6.00 Build 14948)  -->
<!DOCTYPE svg PUBLIC "-//W3C//DTD SVG 1.1//EN" "http://www.w3.org/Graphics/SVG/1.1/DTD/svg11.dtd">
<svg version="1.1" id="Layer_1" xmlns="http://www.w3.org/2000/svg" xmlns:xlink="http://www.w3.org/1999/xlink" x="0px" y="0px"
	 width="374.1728516px" height="172.3720703px" viewBox="0 0 374.1728516 172.3720703"
	 enable-background="new 0 0 374.1728516 172.3720703" xml:space="preserve">
<g>
	<path fill-rule="evenodd" clip-rule="evenodd" fill="#005699" d="M305.7744141,172.3720703l4.0625-18.484375h23.96875
		c0.015625,0,0.0292969,0,0.0449219,0h-0.0449219h0.0449219c10.3203125,0.078125,20.1308594-2.421875,27.1640625-8.1835938
		c6.4121094-5.2539063,10.4101563-12.953125,10.3652344-23.5039063c0.0976563-4.859375-1.4960938-9.6757813-4.3496094-13.5
		c-0.4042969-0.5429688-0.8359375-1.0703125-1.2910156-1.5703125c1.3183594-1.0742188,2.4921875-2.28125,3.5195313-3.6210938
		c3.1875-4.15625,4.8261719-9.3867188,4.9140625-15.578125v-0.1367188
		c-0.0917969-7.3056641-2.328125-13.0234375-7.5585938-17.1064453c-4.7109375-3.6796875-11.6210938-5.6054688-21.4023438-5.6865234
		h-15.8417969l4.0625-18.4853516H204.9208984c-44.1416016,0-79.3417969,27.5175781-81.8564453,67.8876953
		c-2.9335938,47.0742188,30.5908203,57.96875,68.1669922,57.96875H305.7744141L305.7744141,172.3720703z"/>
	<path fill-rule="evenodd" clip-rule="evenodd" fill="#EF3E42" d="M334.6962891,40.6953125L343.6298828,0H214.2802734
		c-52.6621094,0-90.6572266,46.7949219-98.4804688,90.5166016c-1.1982422,6.8789063-0.3222656,12.4296875,2.1455078,16.90625
		c2.7929688-18.75,12.2861328-34.6044922,26.2421875-46.1787109c15.703125-13.0224609,37.0400391-20.5488281,60.7333984-20.5488281
		H334.6962891L334.6962891,40.6953125z"/>
	<polygon fill-rule="evenodd" clip-rule="evenodd" fill="#FFFFFF" points="201.7080078,18.1591797 203.5244141,9.6386719 
		207.9931641,9.6386719 203.3837891,31.0107422 198.9130859,31.0107422 201.0087891,21.5117188 195.8408203,21.5117188 
		193.8857422,31.0107422 189.4150391,31.0107422 193.8857422,9.6386719 198.3544922,9.6386719 196.5400391,18.1591797 
		201.7080078,18.1591797 	"/>
	<polygon fill-rule="evenodd" clip-rule="evenodd" fill="#FFFFFF" points="210.6474609,31.0107422 215.1181641,9.6386719 
		219.5869141,9.6386719 215.1181641,31.0107422 210.6474609,31.0107422 	"/>
	<polygon fill-rule="evenodd" clip-rule="evenodd" fill="#FFFFFF" points="230.9013672,21.5117188 230.2041016,24.5849609 
		222.9404297,24.5849609 223.6396484,21.5117188 230.9013672,21.5117188 	"/>
	<path fill-rule="evenodd" clip-rule="evenodd" fill="#FFFFFF" d="M240.9599609,31.4296875
		c-5.4472656,0-5.8671875-3.2128906-4.8886719-6.984375h4.609375c-0.5585938,2.0947266-0.8378906,3.7714844,1.6757813,3.7714844
		c1.5371094,0,2.5136719-0.9785156,2.7929688-2.375c0.8378906-3.9111328-8.1015625-4.1904297-6.84375-10.4765625
		c0.6992188-3.3515625,2.9335938-6.1455078,8.3808594-6.1455078c4.3300781,0,6.1464844,2.0947266,4.8886719,6.5644531h-4.3300781
		c0.2792969-1.6757813,0.4199219-3.3515625-1.3964844-3.3515625c-1.5371094,0-2.5136719,0.8378906-2.7929688,2.3740234
		c-0.9785156,4.0507813,8.2402344,3.6328125,6.7050781,10.4765625
		C248.6416016,30.7314453,244.4521484,31.4296875,240.9599609,31.4296875L240.9599609,31.4296875z"/>
	<path fill-rule="evenodd" clip-rule="evenodd" fill="#FFFFFF" d="M263.4482422,12.9902344h2.2363281
		c1.9550781,0,2.09375,1.3974609,1.8144531,3.2128906c-0.2773438,1.3974609-1.5351563,2.7939453-2.9316406,2.7939453h-2.515625
		L263.4482422,12.9902344L263.4482422,12.9902344z M255.0673828,31.0107422h4.4707031l1.8164063-8.6601563h3.3515625
		c5.3085938,0,6.8457031-3.9111328,7.2636719-6.2861328c0.8378906-3.9121094-0.1386719-6.4257813-4.3300781-6.4257813h-7.9609375
		L255.0673828,31.0107422L255.0673828,31.0107422z"/>
	<polygon fill-rule="evenodd" clip-rule="evenodd" fill="#FFFFFF" points="274.7646484,31.0107422 279.3740234,9.6386719 
		291.1064453,9.6386719 290.4091797,12.9902344 283.1455078,12.9902344 282.0263672,18.1591797 288.7314453,18.1591797 
		288.0341797,21.5117188 281.3291016,21.5117188 279.9326172,27.7978516 287.4755859,27.7978516 286.7763672,31.0107422 
		274.7646484,31.0107422 	"/>
	<polygon fill-rule="evenodd" clip-rule="evenodd" fill="#FFFFFF" points="292.9228516,31.0107422 297.5322266,9.6386719 
		309.1259766,9.6386719 308.4287109,12.9902344 301.3037109,12.9902344 300.1865234,18.1591797 306.7509766,18.1591797 
		306.0537109,21.5117188 299.4873047,21.5117188 298.0908203,27.7978516 305.4951172,27.7978516 304.7958984,31.0107422 
		292.9228516,31.0107422 	"/>
	<path fill-rule="evenodd" clip-rule="evenodd" fill="#FFFFFF" d="M319.4638672,12.9902344h2.234375
		c3.2128906,0,2.375,3.3535156,1.5371094,7.4042969c-1.1191406,5.3076172-2.0957031,7.4033203-4.75,7.4033203h-2.234375
		L319.4638672,12.9902344L319.4638672,12.9902344z M311.0830078,31.0107422h7.2636719
		c7.6816406,0,8.7988281-7.4033203,9.4980469-10.7558594c1.3964844-6.7050781,1.1171875-10.6162109-4.75-10.6162109h-7.4023438
		L311.0830078,31.0107422L311.0830078,31.0107422z"/>
	<path fill-rule="evenodd" clip-rule="evenodd" fill="#FFFFFF" d="M229.2255859,70.4023438h-23.8867188l-8.7988281,42.3251953
		c-1.6777344,8.8007813-4.75,17.6015625-14.6679688,17.4609375c-9.4980469,0.140625-8.9394531-7.5429688-8.9394531-9.9179688
		c0-1.2578125,0.6982422-5.1679688,1.1171875-7.5429688l8.9404297-42.3251953h-23.8867188l-10.3369141,49.4501953
		c-0.2792969,1.6757813-0.8388672,4.7460938-0.6982422,6.1445313c-0.140625,12.4335938,9.4980469,23.6054688,32.6865234,23.8867188
		c19.5566406-0.28125,33.8046875-8.8007813,37.8554688-28.2148438L229.2255859,70.4023438L229.2255859,70.4023438z
		 M293.3427734,94.2900391c0.4179688-18.9990234-14.3886719-25.1455078-31.0117188-25.2851563
		c-15.3652344,0.1396484-32.2675781,8.1025391-32.40625,25.703125c0.1386719,12.7109375,9.21875,17.7382813,18.578125,20.953125
		c10.7558594,3.4921875,18.71875,4.1914063,18.4375,9.9179688c0.28125,5.0273438-5.4472656,7.4023438-10.1972656,7.5429688
		c-3.9101563-0.140625-6.703125-0.4179688-8.6601563-2.0976563c-1.9550781-1.953125-2.9335938-4.609375-3.2128906-8.9375
		h-22.7675781c-1.1191406,19.8359375,14.9453125,27.9375,32.8261719,28.078125
		c16.6230469-0.140625,34.78125-8.9414063,34.921875-27.3789063c-0.140625-9.359375-4.75-16.625-18.1601563-21.375
		c-7.5429688-2.7929688-19.1367188-3.0703125-19.2773438-8.9375c0.140625-5.03125,5.3085938-6.2871094,9.2207031-6.4267578
		c2.7929688,0.1396484,5.3066406,0.5585938,7.1230469,1.8173828c1.6757813,1.3945313,2.7949219,3.3515625,2.515625,6.4257813
		H293.3427734L293.3427734,94.2900391z M289.2919922,148.0673828l16.0625-77.2460938h39.8105469
		c16.9023438,0.1396484,23.0488281,6.0058594,23.1894531,17.0429688c-0.140625,9.7773438-4.890625,16.203125-14.2480469,18.578125
		v0.2773438c6.984375,1.5390625,11.59375,8.3828125,11.453125,15.3671875
		c0.140625,18.71875-14.8066406,26.1210938-31.7089844,25.9804688H289.2919922L289.2919922,148.0673828z M318.4853516,114.9619141
		l-3.2128906,14.5273438h15.3652344c4.3300781,0,10.1972656-1.5351563,10.3378906-7.8203125
		c-0.140625-5.7304688-4.3300781-6.7070313-9.2207031-6.7070313H318.4853516L318.4853516,114.9619141z M323.7939453,88.9814453
		l-2.375,11.734375h13.4101563c3.7714844-0.140625,8.5214844-1.5390625,8.6601563-6.1484375
		c-0.1386719-4.75-3.2128906-5.5859375-7.5429688-5.5859375H323.7939453L323.7939453,88.9814453z"/>
	<polygon fill-rule="evenodd" clip-rule="evenodd" fill="#005699" points="8.8007813,88.9814453 0,129.4892578 
		139.4072266,129.4892578 139.4072266,88.9814453 8.8007813,88.9814453 	"/>
	<path fill-rule="evenodd" clip-rule="evenodd" fill="#FFFFFF" d="M13.8291016,109.2353516
		c0.8378906-4.3320313,1.6767578-8.3828125,7.2636719-8.3828125c3.3525391,0,4.3300781,1.9570313,3.4921875,5.4492188h-3.2128906
		c0.4199219-2.234375,0.1396484-2.9335938-0.8378906-2.9335938c-1.8164063,0-2.5146484,1.6757813-3.3525391,5.8671875
		c-0.8378906,4.0507813-0.9775391,5.8671875,0.8378906,5.8671875c1.5371094,0,1.9560547-1.9570313,2.2353516-3.2148438h3.3525391
		c-0.9775391,4.1914063-2.9335938,5.5898438-6.0068359,5.5898438
		C12.0136719,117.4775391,12.8515625,113.4267578,13.8291016,109.2353516L13.8291016,109.2353516z"/>
	<polygon fill-rule="evenodd" clip-rule="evenodd" fill="#FFFFFF" points="27.0996094,117.1962891 30.4521484,101.1337891 
		39.2519531,101.1337891 38.6933594,103.6455078 33.2460938,103.6455078 32.4082031,107.5595703 37.4365234,107.5595703 
		36.8779297,110.0712891 31.9892578,110.0712891 30.8710938,114.8212891 36.4589844,114.8212891 36.0400391,117.1962891 
		27.0996094,117.1962891 	"/>
	<path fill-rule="evenodd" clip-rule="evenodd" fill="#FFFFFF" d="M46.7949219,103.6455078h1.5371094
		c0.9775391,0,1.5371094,0.5625,1.2568359,2.0976563c-0.2792969,1.1171875-0.8378906,2.375-2.234375,2.375h-1.5371094
		L46.7949219,103.6455078L46.7949219,103.6455078z M45.3984375,110.6298828h0.8388672
		c2.5136719,0,1.9550781,1.5390625,1.6757813,3.4960938c-0.2792969,1.1171875-0.5585938,2.09375-0.4189453,3.0703125h3.3515625
		c-0.1386719-0.5585938,0.4199219-3.6328125,0.5595703-4.609375c0.6982422-2.9335938-1.5361328-3.0742188-2.2353516-3.2109375l0,0
		c2.375-0.421875,3.4921875-1.9570313,3.9111328-4.0507813c0.5585938-2.65625-0.5585938-4.1914063-2.9335938-4.1914063h-6.1455078
		l-3.4931641,16.0625h3.3535156L45.3984375,110.6298828L45.3984375,110.6298828z"/>
	<polygon fill-rule="evenodd" clip-rule="evenodd" fill="#FFFFFF" points="68.4472656,101.1337891 67.8876953,103.7861328 
		64.1171875,103.7861328 61.3232422,117.1962891 57.9697266,117.1962891 60.7636719,103.7861328 56.9931641,103.7861328 
		57.5507813,101.1337891 68.4472656,101.1337891 	"/>
	<polygon fill-rule="evenodd" clip-rule="evenodd" fill="#FFFFFF" points="69.0048828,117.1962891 72.4980469,101.1337891 
		75.8505859,101.1337891 72.3583984,117.1962891 69.0048828,117.1962891 	"/>
	<polygon fill-rule="evenodd" clip-rule="evenodd" fill="#FFFFFF" points="77.6660156,117.1962891 81.0185547,101.1337891 
		89.3994141,101.1337891 88.8408203,103.6455078 83.8125,103.6455078 82.9736328,107.8369141 87.7236328,107.8369141 
		87.1650391,110.2119141 82.4150391,110.2119141 81.0185547,117.1962891 77.6660156,117.1962891 	"/>
	<polygon fill-rule="evenodd" clip-rule="evenodd" fill="#FFFFFF" points="89.9580078,117.1962891 93.4511719,101.1337891 
		96.8027344,101.1337891 93.3105469,117.1962891 89.9580078,117.1962891 	"/>
	<polygon fill-rule="evenodd" clip-rule="evenodd" fill="#FFFFFF" points="98.6191406,117.1962891 102.1113281,101.1337891 
		110.7714844,101.1337891 110.3525391,103.6455078 104.9052734,103.6455078 104.0673828,107.5595703 109.0957031,107.5595703 
		108.5371094,110.0712891 103.5078125,110.0712891 102.5302734,114.8212891 108.1181641,114.8212891 107.5585938,117.1962891 
		98.6191406,117.1962891 	"/>
	<path fill-rule="evenodd" clip-rule="evenodd" fill="#FFFFFF" d="M118.59375,103.6455078h1.6767578
		c2.375,0,1.8164063,2.65625,1.1171875,5.5898438c-0.8378906,4.0507813-1.5361328,5.5859375-3.6318359,5.5859375h-1.5361328
		L118.59375,103.6455078L118.59375,103.6455078z M112.3085938,117.1962891h5.4472656
		c5.7275391,0,6.5654297-5.5859375,7.1240234-8.1015625c0.9785156-5.0273438,0.8378906-7.9609375-3.6318359-7.9609375h-5.5869141
		L112.3085938,117.1962891L112.3085938,117.1962891z"/>
	<polygon fill-rule="evenodd" clip-rule="evenodd" fill="#FFFFFF" points="293.4814453,159.1025391 293.2021484,160.5009766 
		291.2470703,160.5009766 289.7099609,167.4853516 287.8935547,167.4853516 289.4306641,160.5009766 287.4755859,160.5009766 
		287.7548828,159.1025391 293.4814453,159.1025391 	"/>
	<polygon fill-rule="evenodd" clip-rule="evenodd" fill="#FFFFFF" points="293.2021484,167.4853516 294.8779297,159.1025391 
		297.8115234,159.1025391 297.8115234,164.8291016 297.9521484,164.8291016 300.4658203,159.1025391 303.2607422,159.1025391 
		301.4443359,167.4853516 299.7685547,167.4853516 301.1650391,161.0595703 301.0244141,161.0595703 298.0908203,167.4853516 
		296.4150391,167.4853516 296.2763672,161.0595703 296.2763672,161.0595703 294.8779297,167.4853516 293.2021484,167.4853516 	"/>
</g>
</svg>
